<mxfile host="app.diagrams.net" agent="Mozilla/5.0 (Macintosh; Intel Mac OS X 10.15; rv:134.0) Gecko/20100101 Firefox/134.0" version="26.0.6">
  <diagram id="Ht1M8jgEwFfnCIfOTk4-" name="Page-1">
    <mxGraphModel dx="1859" dy="998" grid="1" gridSize="10" guides="1" tooltips="1" connect="1" arrows="1" fold="1" page="1" pageScale="1" pageWidth="1169" pageHeight="827" math="0" shadow="0">
      <root>
        <mxCell id="0" />
        <mxCell id="1" parent="0" />
        <mxCell id="vKba3tlgPSYisf17pEgd-33" value="oer.community/blog" style="shape=image;verticalLabelPosition=bottom;labelBackgroundColor=none;verticalAlign=top;aspect=fixed;imageAspect=0;image=https://oer.community/wp-content/uploads/2024/05/cropped-fOERbico.png;imageBorder=none;perimeterSpacing=0;labelBorderColor=none;textShadow=0;fontColor=default;fontFamily=Roboto Condensed;fontSource=https%3A%2F%2Ffonts.googleapis.com%2Fcss%3Ffamily%3DRoboto%2BCondensed;horizontal=1;labelPosition=center;align=center;flipH=0;direction=east;flipV=0;imageBackground=#8ed1fc;fillStyle=solid;fontSize=11;fontStyle=0" parent="1" vertex="1">
          <mxGeometry x="560" y="632.5" width="90" height="90" as="geometry" />
        </mxCell>
        <mxCell id="q5zUbUnrUjezg0L--bs4-15" style="edgeStyle=orthogonalEdgeStyle;rounded=0;orthogonalLoop=1;jettySize=auto;html=1;exitX=1;exitY=0;exitDx=0;exitDy=0;entryX=0;entryY=0.5;entryDx=0;entryDy=0;" parent="1" source="vKba3tlgPSYisf17pEgd-35" target="q5zUbUnrUjezg0L--bs4-10" edge="1">
          <mxGeometry relative="1" as="geometry" />
        </mxCell>
        <mxCell id="q5zUbUnrUjezg0L--bs4-16" value="&lt;div&gt;Push&lt;/div&gt;&lt;div&gt;&lt;br&gt;&lt;/div&gt;" style="edgeLabel;html=1;align=center;verticalAlign=middle;resizable=0;points=[];" parent="q5zUbUnrUjezg0L--bs4-15" vertex="1" connectable="0">
          <mxGeometry x="0.1637" y="-1" relative="1" as="geometry">
            <mxPoint as="offset" />
          </mxGeometry>
        </mxCell>
        <UserObject label="git.rpi-virtuell.de" link="https://git.rpi-virtuell.de" id="vKba3tlgPSYisf17pEgd-35">
          <mxCell style="shape=image;verticalLabelPosition=bottom;labelBackgroundColor=default;verticalAlign=top;aspect=fixed;imageAspect=0;image=https://git.rpi-virtuell.de/assets/img/logo.svg;imageBackground=#eeeff2;fontFamily=Roboto Condensed;fontSource=https%3A%2F%2Ffonts.googleapis.com%2Fcss%3Ffamily%3DRoboto%2BCondensed;" parent="1" vertex="1">
            <mxGeometry x="150" y="485.70000000000005" width="74.3" height="74.3" as="geometry" />
          </mxCell>
        </UserObject>
        <mxCell id="vKba3tlgPSYisf17pEgd-48" value="" style="edgeStyle=orthogonalEdgeStyle;rounded=0;orthogonalLoop=1;jettySize=auto;html=1;fontFamily=Roboto Condensed;fontSource=https%3A%2F%2Ffonts.googleapis.com%2Fcss%3Ffamily%3DRoboto%2BCondensed;fontSize=12;fontColor=#232F3E;fontStyle=0;labelBackgroundColor=#ffffff;" parent="1" source="vKba3tlgPSYisf17pEgd-36" target="vKba3tlgPSYisf17pEgd-35" edge="1">
          <mxGeometry relative="1" as="geometry" />
        </mxCell>
        <mxCell id="vKba3tlgPSYisf17pEgd-36" value="&lt;div&gt;MarkDown&lt;/div&gt;&lt;div&gt;&lt;br&gt;&lt;/div&gt;" style="shape=image;html=1;verticalAlign=top;verticalLabelPosition=bottom;labelBackgroundColor=#ffffff;imageAspect=0;aspect=fixed;image=https://cdn0.iconfinder.com/data/icons/octicons/1024/markdown-128.png;dashed=0;strokeColor=#ffffff;align=center;spacingTop=3;fontFamily=Roboto Condensed;fontSource=https%3A%2F%2Ffonts.googleapis.com%2Fcss%3Ffamily%3DRoboto%2BCondensed;fontSize=12;fontColor=#232F3E;fontStyle=0;fillColor=#D05C17;gradientColor=#F78E04;gradientDirection=north;" parent="1" vertex="1">
          <mxGeometry x="162.15" y="380" width="50" height="50" as="geometry" />
        </mxCell>
        <mxCell id="vKba3tlgPSYisf17pEgd-49" value="" style="edgeStyle=orthogonalEdgeStyle;rounded=0;orthogonalLoop=1;jettySize=auto;html=1;fontFamily=Roboto Condensed;fontSource=https%3A%2F%2Ffonts.googleapis.com%2Fcss%3Ffamily%3DRoboto%2BCondensed;fontSize=12;fontColor=#232F3E;fontStyle=0;labelBackgroundColor=#ffffff;exitX=0.999;exitY=0.129;exitDx=0;exitDy=0;exitPerimeter=0;" parent="1" source="vKba3tlgPSYisf17pEgd-35" edge="1">
          <mxGeometry relative="1" as="geometry">
            <mxPoint x="316" y="495" as="sourcePoint" />
            <mxPoint x="460" y="494.04761904761904" as="targetPoint" />
          </mxGeometry>
        </mxCell>
        <mxCell id="vKba3tlgPSYisf17pEgd-56" value="Issues" style="shape=image;verticalLabelPosition=middle;labelBackgroundColor=default;verticalAlign=middle;aspect=fixed;imageAspect=0;image=data:image/svg+xml,PHN2ZyB4bWw6c3BhY2U9InByZXNlcnZlIiB2aWV3Qm94PSIwIDAgMTA4MCAxMDgwIiBoZWlnaHQ9IjEwODAiIHdpZHRoPSIxMDgwIiB2ZXJzaW9uPSIxLjEiIHhtbG5zOnhsaW5rPSJodHRwOi8vd3d3LnczLm9yZy8xOTk5L3hsaW5rIiB4bWxucz0iaHR0cDovL3d3dy53My5vcmcvMjAwMC9zdmciPiYjeGE7PGRlc2M+Q3JlYXRlZCB3aXRoIEZhYnJpYy5qcyA1LjIuNDwvZGVzYz4mI3hhOzxkZWZzPiYjeGE7PC9kZWZzPiYjeGE7PGcgaWQ9IjcyNjc1NjNiLWNmYTktNDQ3Zi05YmFhLTc4NjAwMjcwZjQwNiIgdHJhbnNmb3JtPSJtYXRyaXgoMSAwIDAgMSA1NDAgNTQwKSI+JiN4YTs8cmVjdCBoZWlnaHQ9IjEwODAiIHdpZHRoPSIxMDgwIiByeT0iMCIgcng9IjAiIHk9Ii01NDAiIHg9Ii01NDAiIHN0eWxlPSJzdHJva2U6IG5vbmU7IHN0cm9rZS13aWR0aDogMTsgc3Ryb2tlLWRhc2hhcnJheTogbm9uZTsgc3Ryb2tlLWxpbmVjYXA6IGJ1dHQ7IHN0cm9rZS1kYXNob2Zmc2V0OiAwOyBzdHJva2UtbGluZWpvaW46IG1pdGVyOyBzdHJva2UtbWl0ZXJsaW1pdDogNDsgZmlsbDogcmdiKDI1NSwyNTUsMjU1KTsgZmlsbC1ydWxlOiBub256ZXJvOyBvcGFjaXR5OiAxOyB2aXNpYmlsaXR5OiBoaWRkZW47Ii8+JiN4YTs8L2c+JiN4YTs8ZyBpZD0iZTdmNDUwY2YtNWY2My00YzY5LWFmNTQtMTViNTA1OWZiNTUxIiB0cmFuc2Zvcm09Im1hdHJpeCgxIDAgMCAxIDU0MCA1NDApIj4mI3hhOzwvZz4mI3hhOzxnIHRyYW5zZm9ybT0ibWF0cml4KDY3LjUgMCAwIDY3LjUgNTQwIDU0MCkiPiYjeGE7PGcgc3R5bGU9IiI+JiN4YTsJCTxnIHRyYW5zZm9ybT0ibWF0cml4KDEgMCAwIDEgMCAwKSI+JiN4YTs8cGF0aCBzdHJva2UtbGluZWNhcD0icm91bmQiIGQ9Ik0gOCA5LjUgQyA4LjgyODQyNzEyNDc0NjE5IDkuNSA5LjUgOC44Mjg0MjcxMjQ3NDYxOSA5LjUgOCBDIDkuNSA3LjE3MTU3Mjg3NTI1MzgxIDguODI4NDI3MTI0NzQ2MTkgNi41IDggNi41IEMgNy4xNzE1NzI4NzUyNTM4MSA2LjUgNi41IDcuMTcxNTcyODc1MjUzODEgNi41IDggQyA2LjUgOC44Mjg0MjcxMjQ3NDYxOSA3LjE3MTU3Mjg3NTI1MzgxIDkuNSA4IDkuNSIgdHJhbnNmb3JtPSJ0cmFuc2xhdGUoLTgsIC04KSIgc3R5bGU9InN0cm9rZTogbm9uZTsgc3Ryb2tlLXdpZHRoOiAxOyBzdHJva2UtZGFzaGFycmF5OiBub25lOyBzdHJva2UtbGluZWNhcDogYnV0dDsgc3Ryb2tlLWRhc2hvZmZzZXQ6IDA7IHN0cm9rZS1saW5lam9pbjogbWl0ZXI7IHN0cm9rZS1taXRlcmxpbWl0OiA0OyBmaWxsOiByZ2IoMCwwLDApOyBmaWxsLXJ1bGU6IG5vbnplcm87IG9wYWNpdHk6IDE7Ii8+JiN4YTs8L2c+JiN4YTsJCTxnIHRyYW5zZm9ybT0ibWF0cml4KDEgMCAwIDEgMCAwKSI+JiN4YTs8cGF0aCBzdHJva2UtbGluZWNhcD0icm91bmQiIGQ9Ik0gOCAwIEMgMTIuNDE4Mjc3OTk4NjQ2MzQ4IDAgMTYgMy41ODE3MjIwMDEzNTM2NTA2IDE2IDcuOTk5OTk5OTk5OTk5OTk4IEMgMTYgMTIuNDE4Mjc3OTk4NjQ2MzQ2IDEyLjQxODI3Nzk5ODY0NjM1IDE1Ljk5OTk5OTk5OTk5OTk5OCA4LjAwMDAwMDAwMDAwMDAwMiAxNiBDIDMuNTgxNzIyMDAxMzUzNjUyNCAxNiAwIDEyLjQxODI3Nzk5ODY0NjM0OCAwIDggQyAwIDMuNTgxNzIyMDAxMzUzNjUyNCAzLjU4MTcyMjAwMTM1MzY1MjQgMCA4IDAgTSAxLjUgOCBDIDEuNSAxMS41ODk4NTA4NzM5MDAxNTggNC40MTAxNDkxMjYwOTk4NDIgMTQuNSA4IDE0LjUgQyAxMS41ODk4NTA4NzM5MDAxNTggMTQuNSAxNC41IDExLjU4OTg1MDg3MzkwMDE1OCAxNC41IDggQyAxNC41IDQuNDEwMTQ5MTI2MDk5ODQyIDExLjU4OTg1MDg3MzkwMDE1OCAxLjUgOCAxLjUgQyA0LjQxMDE0OTEyNjA5OTg0MiAxLjUgMS41IDQuNDEwMTQ5MTI2MDk5ODQyIDEuNSA3Ljk5OTk5OTk5OTk5OTk5OSIgdHJhbnNmb3JtPSJ0cmFuc2xhdGUoLTgsIC04KSIgc3R5bGU9InN0cm9rZTogbm9uZTsgc3Ryb2tlLXdpZHRoOiAxOyBzdHJva2UtZGFzaGFycmF5OiBub25lOyBzdHJva2UtbGluZWNhcDogYnV0dDsgc3Ryb2tlLWRhc2hvZmZzZXQ6IDA7IHN0cm9rZS1saW5lam9pbjogbWl0ZXI7IHN0cm9rZS1taXRlcmxpbWl0OiA0OyBmaWxsOiByZ2IoMCwwLDApOyBmaWxsLXJ1bGU6IG5vbnplcm87IG9wYWNpdHk6IDE7Ii8+JiN4YTs8L2c+JiN4YTs8L2c+JiN4YTs8L2c+JiN4YTs8L3N2Zz4=;labelPosition=right;align=left;fontFamily=Roboto Condensed;fontSource=https%3A%2F%2Ffonts.googleapis.com%2Fcss%3Ffamily%3DRoboto%2BCondensed;" parent="1" vertex="1">
          <mxGeometry x="238.15" y="518" width="20" height="20" as="geometry" />
        </mxCell>
        <mxCell id="vKba3tlgPSYisf17pEgd-66" style="edgeStyle=orthogonalEdgeStyle;rounded=0;orthogonalLoop=1;jettySize=auto;html=1;entryX=0;entryY=0.25;entryDx=0;entryDy=0;fontFamily=Roboto Condensed;fontSource=https%3A%2F%2Ffonts.googleapis.com%2Fcss%3Ffamily%3DRoboto%2BCondensed;fontSize=12;fontColor=#232F3E;fontStyle=0;labelBackgroundColor=#ffffff;" parent="1" source="vKba3tlgPSYisf17pEgd-60" target="vKba3tlgPSYisf17pEgd-33" edge="1">
          <mxGeometry relative="1" as="geometry">
            <Array as="points">
              <mxPoint x="464" y="700" />
              <mxPoint x="464" y="655" />
            </Array>
          </mxGeometry>
        </mxCell>
        <mxCell id="vKba3tlgPSYisf17pEgd-60" value="" style="dashed=0;outlineConnect=0;html=1;align=center;labelPosition=center;verticalLabelPosition=bottom;verticalAlign=top;shape=mxgraph.weblogos.wordpress_2;fillColor=#00A7DA;strokeColor=none;spacingTop=3;fontFamily=Roboto Condensed;fontSource=https%3A%2F%2Ffonts.googleapis.com%2Fcss%3Ffamily%3DRoboto%2BCondensed;fontSize=12;fontColor=#232F3E;fontStyle=0;labelBackgroundColor=#ffffff;" parent="1" vertex="1">
          <mxGeometry x="420" y="632.5" width="68.8" height="68.8" as="geometry" />
        </mxCell>
        <mxCell id="vKba3tlgPSYisf17pEgd-61" value="" style="endArrow=classic;html=1;rounded=0;fontFamily=Roboto Condensed;fontSource=https%3A%2F%2Ffonts.googleapis.com%2Fcss%3Ffamily%3DRoboto%2BCondensed;fontSize=12;fontColor=#232F3E;fontStyle=0;labelBackgroundColor=#ffffff;exitX=1;exitY=1;exitDx=0;exitDy=0;" parent="1" source="vKba3tlgPSYisf17pEgd-35" target="vKba3tlgPSYisf17pEgd-60" edge="1">
          <mxGeometry relative="1" as="geometry">
            <mxPoint x="380" y="370" as="sourcePoint" />
            <mxPoint x="480" y="370" as="targetPoint" />
          </mxGeometry>
        </mxCell>
        <mxCell id="vKba3tlgPSYisf17pEgd-62" value="Label" style="edgeLabel;resizable=0;html=1;;align=center;verticalAlign=middle;dashed=0;strokeColor=#ffffff;spacingTop=3;fontFamily=Roboto Condensed;fontSource=https%3A%2F%2Ffonts.googleapis.com%2Fcss%3Ffamily%3DRoboto%2BCondensed;fontSize=12;fontColor=#232F3E;fontStyle=0;labelBackgroundColor=#ffffff;fillColor=#D05C17;gradientColor=#F78E04;gradientDirection=north;" parent="vKba3tlgPSYisf17pEgd-61" connectable="0" vertex="1">
          <mxGeometry relative="1" as="geometry" />
        </mxCell>
        <mxCell id="vKba3tlgPSYisf17pEgd-63" value="vorläufig manuell" style="edgeLabel;html=1;align=center;verticalAlign=middle;resizable=0;points=[];dashed=0;strokeColor=#ffffff;spacingTop=3;fontFamily=Roboto Condensed;fontSource=https%3A%2F%2Ffonts.googleapis.com%2Fcss%3Ffamily%3DRoboto%2BCondensed;fontSize=12;fontColor=#232F3E;fontStyle=0;labelBackgroundColor=#ffffff;fillColor=#D05C17;gradientColor=#F78E04;gradientDirection=north;" parent="vKba3tlgPSYisf17pEgd-61" vertex="1" connectable="0">
          <mxGeometry x="0.0251" y="-1" relative="1" as="geometry">
            <mxPoint as="offset" />
          </mxGeometry>
        </mxCell>
        <mxCell id="vKba3tlgPSYisf17pEgd-70" style="edgeStyle=orthogonalEdgeStyle;rounded=0;orthogonalLoop=1;jettySize=auto;html=1;fontFamily=Roboto Condensed;fontSource=https%3A%2F%2Ffonts.googleapis.com%2Fcss%3Ffamily%3DRoboto%2BCondensed;fontSize=12;fontColor=#232F3E;fontStyle=0;labelBackgroundColor=#ffffff;" parent="1" source="vKba3tlgPSYisf17pEgd-67" target="vKba3tlgPSYisf17pEgd-33" edge="1">
          <mxGeometry relative="1" as="geometry" />
        </mxCell>
        <mxCell id="vKba3tlgPSYisf17pEgd-67" value="Hugo SSG" style="shape=image;verticalLabelPosition=bottom;labelBackgroundColor=default;verticalAlign=top;aspect=fixed;imageAspect=0;image=data:image/svg+xml,PHN2ZyBmaWxsPSIjMDAwMDAwIiBoZWlnaHQ9IjgwMHB4IiB3aWR0aD0iODAwcHgiIHhtbDpzcGFjZT0icHJlc2VydmUiIHZpZXdCb3g9IjAgMCAzNzAgMzkxIiB4bWxuczp4bGluaz0iaHR0cDovL3d3dy53My5vcmcvMTk5OS94bGluayIgeG1sbnM9Imh0dHA6Ly93d3cudzMub3JnLzIwMDAvc3ZnIiBpZD0iTGF5ZXJfMSIgdmVyc2lvbj0iMS4xIj4mI3hhOyYjeGE7PGcgc3Ryb2tlLXdpZHRoPSIwIiBpZD0iU1ZHUmVwb19iZ0NhcnJpZXIiLz4mI3hhOyYjeGE7PGcgc3Ryb2tlLWxpbmVqb2luPSJyb3VuZCIgc3Ryb2tlLWxpbmVjYXA9InJvdW5kIiBpZD0iU1ZHUmVwb190cmFjZXJDYXJyaWVyIi8+JiN4YTsmI3hhOzxnIGlkPSJTVkdSZXBvX2ljb25DYXJyaWVyIj4gPHN0eWxlIHR5cGU9InRleHQvY3NzIj4gLnN0MHtmaWxsLXJ1bGU6ZXZlbm9kZDtjbGlwLXJ1bGU6ZXZlbm9kZDtmaWxsOiNGRkE1MDA7c3Ryb2tlOiMyMDNhOGY7c3Ryb2tlLXdpZHRoOjI3O30gLnN0MXtmaWxsLXJ1bGU6ZXZlbm9kZDtjbGlwLXJ1bGU6ZXZlbm9kZDtmaWxsOiNGRkZGRkY7fSA8L3N0eWxlPiA8cGF0aCBkPSJNMjA3LjUsMjIuNEwzMjEuOSw4OWMxMy41LDcuOSwyMS45LDIyLjQsMjEuOSwzOHYxMzYuNGMwLDE3LjMtOS4zLDMzLjMtMjQuNSw0MS44bC0xMTMuNSw2My45IGMtMTUuMSw4LjUtMzMuNSw4LjQtNDguNS0wLjJMNTIuOCwzMDguOGMtMTYuNC05LjUtMjYuNi0yNy0yNi42LTQ1LjlWMTMzLjRjMC0xOS4xLDkuOS0zNi44LDI2LjEtNDYuOGwxMDIuOC02My41IEMxNzEuMSwxMy4yLDE5MS4zLDEzLDIwNy41LDIyLjR6IiBjbGFzcz0ic3QwIi8+IDxwb2x5Z29uIHBvaW50cz0iMTA1LjYsMjk4LjIgMTA1LjYsOTEgMTQ5LDkxIDE0OSwxNjYuNSAyMjAuOSwxNjYuNSAyMjAuOSw5MSAyNjQuNCw5MSAyNjQuNCwyOTguMiAyMjAuOSwyOTguMiAyMjAuOSwyMDcuNiAxNDksMjA3LjYgMTQ5LDI5OC4yIiBjbGFzcz0ic3QxIi8+IDwvZz4mI3hhOyYjeGE7PC9zdmc+;" parent="1" vertex="1">
          <mxGeometry x="580" y="470" width="50" height="50" as="geometry" />
        </mxCell>
        <mxCell id="vKba3tlgPSYisf17pEgd-69" style="edgeStyle=orthogonalEdgeStyle;rounded=0;orthogonalLoop=1;jettySize=auto;html=1;fontFamily=Roboto Condensed;fontSource=https%3A%2F%2Ffonts.googleapis.com%2Fcss%3Ffamily%3DRoboto%2BCondensed;fontSize=12;fontColor=#232F3E;fontStyle=0;labelBackgroundColor=#ffffff;" parent="1" source="vKba3tlgPSYisf17pEgd-68" target="vKba3tlgPSYisf17pEgd-67" edge="1">
          <mxGeometry relative="1" as="geometry" />
        </mxCell>
        <mxCell id="q5zUbUnrUjezg0L--bs4-6" style="edgeStyle=orthogonalEdgeStyle;rounded=0;orthogonalLoop=1;jettySize=auto;html=1;entryX=0;entryY=0.25;entryDx=0;entryDy=0;" parent="1" source="vKba3tlgPSYisf17pEgd-68" target="qUk6HZ97VZmxMNl468dv-4" edge="1">
          <mxGeometry relative="1" as="geometry" />
        </mxCell>
        <mxCell id="q5zUbUnrUjezg0L--bs4-19" value="Bereitstellung als OERSI-Datensatz" style="edgeLabel;html=1;align=center;verticalAlign=middle;resizable=0;points=[];" parent="q5zUbUnrUjezg0L--bs4-6" vertex="1" connectable="0">
          <mxGeometry x="0.0053" y="-2" relative="1" as="geometry">
            <mxPoint as="offset" />
          </mxGeometry>
        </mxCell>
        <UserObject label="https://woody.git.rpi-virtuell.de" link="https://woody.git.rpi-virtuell.de" id="vKba3tlgPSYisf17pEgd-68">
          <mxCell style="shape=image;verticalLabelPosition=bottom;labelBackgroundColor=default;verticalAlign=top;aspect=fixed;imageAspect=0;image=data:image/svg+xml,PHN2ZyB4bWw6c3BhY2U9InByZXNlcnZlIiB2aWV3Qm94PSIwIDAgMTA4MCAxMDgwIiBoZWlnaHQ9IjEwODAiIHdpZHRoPSIxMDgwIiB2ZXJzaW9uPSIxLjEiIHhtbG5zOnhsaW5rPSJodHRwOi8vd3d3LnczLm9yZy8xOTk5L3hsaW5rIiB4bWxucz0iaHR0cDovL3d3dy53My5vcmcvMjAwMC9zdmciPiYjeGE7PGRlc2M+Q3JlYXRlZCB3aXRoIEZhYnJpYy5qcyA1LjIuNDwvZGVzYz4mI3hhOzxkZWZzPiYjeGE7PC9kZWZzPiYjeGE7PHJlY3QgZmlsbD0idHJhbnNwYXJlbnQiIGhlaWdodD0iMTAwJSIgd2lkdGg9IjEwMCUiIHk9IjAiIHg9IjAiLz4mI3hhOzxnIGlkPSI3MjY3NTYzYi1jZmE5LTQ0N2YtOWJhYS03ODYwMDI3MGY0MDYiIHRyYW5zZm9ybT0ibWF0cml4KDEgMCAwIDEgNTQwIDU0MCkiPiYjeGE7PHJlY3QgaGVpZ2h0PSIxMDgwIiB3aWR0aD0iMTA4MCIgcnk9IjAiIHJ4PSIwIiB5PSItNTQwIiB4PSItNTQwIiBzdHlsZT0ic3Ryb2tlOiBub25lOyBzdHJva2Utd2lkdGg6IDE7IHN0cm9rZS1kYXNoYXJyYXk6IG5vbmU7IHN0cm9rZS1saW5lY2FwOiBidXR0OyBzdHJva2UtZGFzaG9mZnNldDogMDsgc3Ryb2tlLWxpbmVqb2luOiBtaXRlcjsgc3Ryb2tlLW1pdGVybGltaXQ6IDQ7IGZpbGw6IHJnYigyNTUsMjU1LDI1NSk7IGZpbGwtcnVsZTogbm9uemVybzsgb3BhY2l0eTogMTsgdmlzaWJpbGl0eTogaGlkZGVuOyIvPiYjeGE7PC9nPiYjeGE7PGcgaWQ9ImU3ZjQ1MGNmLTVmNjMtNGM2OS1hZjU0LTE1YjUwNTlmYjU1MSIgdHJhbnNmb3JtPSJtYXRyaXgoMSAwIDAgMSA1NDAgNTQwKSI+JiN4YTs8L2c+JiN4YTs8ZyB0cmFuc2Zvcm09Im1hdHJpeCgyMC43MiAwIDAgMjAuNzIgNTQwLjQzIDU0MC45MykiPiYjeGE7PHBhdGggc3Ryb2tlLWxpbmVjYXA9InJvdW5kIiBkPSJNIDEuMjYzIDIuNzQ0IEMgMi40MSAzLjgzMiAyLjg0NSA0LjkzMiA0LjExOCA1LjA4IEwgNC4xNTQgNS4wODcgQyAzLjU2NiA1LjY5MyAzLjA2NCA2LjQ4OSAyLjcxMSA3LjUxIEMgMi4zMzEgOC42MDYgMi4yMjMgOS43OTUgMi4wOTcgMTEuMTY5IEMgMS45MDcgMTMuMjE1IDEuNjk2IDE1LjUzMzAwMDAwMDAwMDAwMSAwLjU0MDk5OTk5OTk5OTk5OTkgMTguNDM4MDAwMDAwMDAwMDAyIEMgLTEuOTQ1MDAwMDAwMDAwMDAwMyAyNC42OTYgLTAuNTc5MDAwMDAwMDAwMDAwMiAzMC4wNjgwMDAwMDAwMDAwMDUgMC44NzMgMzUuNzU1IEMgMS41MzcgMzguMzU5IDIuMjIxIDQxLjA1MiAyLjUxNDk5OTk5OTk5OTk5OTcgNDMuODYyIEMgMi41NTEwMDY3MjI2MDE0Nzg4IDQ0LjIxNzM5NTU5ODA5OTg2IDIuODAyOTYwODE1NDIyNzk1NiA0NC41MTM1MzEyMTQzMDY5MSAzLjE0Nzk5OTk5OTk5OTk5OTcgNDQuNjA2IEMgMy40OTI1ODk4OTg5MTExODU3IDQ0LjcwMDI5MTM2ODc2NjAxIDMuODU5NTg5NDQ0Njg1ODM5IDQ0LjU3MTcyMjExMzU3NTk3IDQuMDY5OTk5OTk5OTk5OTk5IDQ0LjI4MyBDIDQuMjk3IDQzLjk3IDQuNTkzOTk5OTk5OTk5OTk5IDQzLjQ4NjAwMDAwMDAwMDAwNCA0LjkzIDQyLjg1OSBDIDUuNzcgNDYuMTgyIDYuMjg1IDQ4Ljk4OTAwMDAwMDAwMDAwNCA2LjcxMjk5OTk5OTk5OTk5OSA1MS41NTYgQyA2Ljc3MDA3NDM5ODY1NjExMyA1MS44ODg0MjE1OTA0NjEzMzQgNy4wMTQ5NjA4NjI2NzQ5MTIgNTIuMTU3NDYyMDc2NDIyMzM0IDcuMzQwNTY0MDY5NDI5MDE4IDUyLjI0NTQ2Mjk0MzExMjYzNSBDIDcuNjY2MTY3Mjc2MTgzMTIyIDUyLjMzMzQ2MzgwOTgwMjkzIDguMDEzMjQwNzE1NTY0MzMzIDUyLjIyNDQxMjQ4NjkyMzAxIDguMjI5OTk5OTk5OTk5OTk5IDUxLjk2NTk5OTk5OTk5OTk5NCBDIDExLjExIDQ4LjUwMjk5OTk5OTk5OTk5IDExLjk5Mjk5OTk5OTk5OTk5OSA0My4zMyAxMC40MTM5OTk5OTk5OTk5OTggMzkuMjkxOTk5OTk5OTk5OTk0IEMgMTAuODcyOTk5OTk5OTk5OTk4IDM2Ljg1ODk5OTk5OTk5OTk5NSAxMS44MTU5OTk5OTk5OTk5OTcgMzQuODQxOTk5OTk5OTk5OTkgMTIuODExOTk5OTk5OTk5OTk4IDMyLjcwODk5OTk5OTk5OTk5NiBDIDEzLjM0Nzk5OTk5OTk5OTk5NyAzMS41NTg5OTk5OTk5OTk5OTcgMTMuODkxOTk5OTk5OTk5OTk4IDMwLjM5MDk5OTk5OTk5OTk5NSAxNC4zNjE5OTk5OTk5OTk5OTggMjkuMTQyOTk5OTk5OTk5OTk3IEMgMTQuNTg5OTk5OTk5OTk5OTk4IDI5LjA1ODk5OTk5OTk5OTk5NyAxNC45MzA5OTk5OTk5OTk5OTcgMjguODI4OTk5OTk5OTk5OTk3IDE1LjE1MTk5OTk5OTk5OTk5NyAyOC43MDE5OTk5OTk5OTk5OTggTCAxNi44NTg5OTk5OTk5OTk5OTggMjcuNzIwOTk5OTk5OTk5OTk3IEwgMTYuNjAyOTk5OTk5OTk5OTk4IDI4Ljc3Mjk5OTk5OTk5OTk5NiBDIDE2LjUwOTM3ODU0NjYzNjU3NiAyOS4yMjg2MDI1NTMzMDY0NjYgMTYuNzkzMjMxMTU4MjkxNjggMjkuNjc2NTU3MzA1ODA1MjMgMTcuMjQ1MTg1MzYyNTY1NTkzIDI5Ljc4NjQ0ODQzNTMzMDcxIEMgMTcuNjk3MTM5NTY2ODM5NTA3IDI5Ljg5NjMzOTU2NDg1NjE5IDE4LjE1NDk4MDQxMzM2OTcxNCAyOS42Mjg3MjUwNTcyNTU4OCAxOC4yODEgMjkuMTgwOTk5OTk5OTk5OTk3IEwgMTguOTYxIDI2LjMyMjk5OTk5OTk5OTk5NyBMIDIwLjI0NiAyMy4zNzI5OTk5OTk5OTk5OTggQyAyMC4zODc1NjAxMDkxNzc2MTMgMjMuMDg3NDcyMzc4NTY5NDEyIDIwLjM2MDIzODk5NzU2NTg0IDIyLjc0NzE2OTMwNzU0NTE1NyAyMC4xNzQ5Mzg3Mzk0ODg0NTQgMjIuNDg3ODgzNTU1MDEyMDg2IEMgMTkuOTg5NjM4NDgxNDExMDcgMjIuMjI4NTk3ODAyNDc5MDE1IDE5LjY3NjUyNDIyODc1MDk4IDIyLjA5MjUzODY2ODAyMTQwNSAxOS4zNjA1Mzk0NjQ4Nzg5MyAyMi4xMzM5OTg0ODEyMjU0MDQgQyAxOS4wNDQ1NTQ3MDEwMDY4OCAyMi4xNzU0NTgyOTQ0Mjk0MDQgMTguNzc3MTM4Nzk1MTU5NDg3IDIyLjM4NzY4Nzc4NDgxMjAxIDE4LjY2NSAyMi42ODU5OTk5OTk5OTk5OTYgTCAxNy41MTI5OTk5OTk5OTk5OTggMjUuMzU0OTk5OTk5OTk5OTk3IEwgMTUuMTI5OTk5OTk5OTk5OTk5IDI2LjcyNjk5OTk5OTk5OTk5NyBDIDE1LjM3ODI2NDI3NzYyNzM0IDI1Ljc0ODQwODE0MjI2MDIgMTUuNTQ4MTM1NDg0MzczMjc0IDI0Ljc1MTU4NTE3NTExNTI3NCAxNS42MzgwMDAwMDAwMDAwMDIgMjMuNzQ1OTk5OTk5OTk5OTk1IEMgMTYuMDY5OTk5OTk5OTk5OTk3IDE4Ljg4NTk5OTk5OTk5OTk5NiAxNC45MTk5OTk5OTk5OTk5OTggMTQuNjcxOTk5OTk5OTk5OTk1IDEyLjU3MiAxMi40Nzk5OTk5OTk5OTk5OTUgQyAxMi40MDg5OTk5OTk5OTk5OTkgMTIuMzIyOTk5OTk5OTk5OTk1IDEyLjM2Mzk5OTk5OTk5OTk5OSAxMi4xOTg5OTk5OTk5OTk5OTUgMTIuMzI1IDEyLjIxOTk5OTk5OTk5OTk5NSBDIDEyLjQyIDEyLjA5OTk5OTk5OTk5OTk5NiAxMi41NzQgMTEuOTU5OTk5OTk5OTk5OTk2IDEyLjY4MyAxMS44NDU5OTk5OTk5OTk5OTUgQyAxNC45NjYgMTAuMTUyOTk5OTk5OTk5OTk1IDE4LjczIDExLjY5ODk5OTk5OTk5OTk5NSAyMS4wMDIwMDAwMDAwMDAwMDIgMTIuNTk1OTk5OTk5OTk5OTk1IEMgMjEuNTkxIDEyLjgyNzk5OTk5OTk5OTk5NCAyMS44NzgwMDAwMDAwMDAwMDQgMTIuMjU4OTk5OTk5OTk5OTk1IDIxLjMxOCAxMS45MjU5OTk5OTk5OTk5OTUgQyAxOS4zNjgwMDAwMDAwMDAwMDIgMTAuNzcyOTk5OTk5OTk5OTk0IDE1LjM3MDAwMDAwMDAwMDAwMSA3LjcyOTk5OTk5OTk5OTk5NSAxMy4xMyA1LjczMjk5OTk5OTk5OTk5NSBDIDEyLjgxNyA1LjQ1Nzk5OTk5OTk5OTk5NSAxMi42MDMwMDAwMDAwMDAwMDIgNS4xMjU5OTk5OTk5OTk5OTUgMTIuMjQgNC44MTk5OTk5OTk5OTk5OTUgQyA5LjgyNSAwLjU1NSA0LjA3MiAzLjA1NyAxLjM1NSAyLjU2OSBDIDEuMjUzIDIuNTUxIDEuMTg5IDIuNjcyIDEuMjYzIDIuNzQzOTk5OTk5OTk5OTk5OCBNIDEyLjI0MyA4LjY0MyBDIDEyLjE4MyA5Ljg4NTAwMDAwMDAwMDAwMiAxMS42NCAxMC40NDMwMDAwMDAwMDAwMDEgMTEuMjQzIDEwLjg1MSBDIDExLjAyNiAxMS4wNzUwMDAwMDAwMDAwMDEgMTAuODE3IDExLjI4NyAxMC43MTkwMDAwMDAwMDAwMDEgMTEuNTg5IEMgMTAuNDgzIDEyLjMwMyAxMC43MjcgMTMuMDk5IDExLjM3OTAwMDAwMDAwMDAwMSAxMy43MzIgQyAxMy4zNTMwMDAwMDAwMDAwMDIgMTUuNTcyIDE0LjMwNDAwMDAwMDAwMDAwMiAxOS4yNTkgMTMuOTE3MDAwMDAwMDAwMDAyIDIzLjU5MiBDIDEzLjYyNjAwMDAwMDAwMDAwMSAyNi44OCAxMi40NjkwMDAwMDAwMDAwMDEgMjkuMzU0OTk5OTk5OTk5OTk3IDExLjI0NjAwMDAwMDAwMDAwMiAzMS45NzY5OTk5OTk5OTk5OTcgQyAxMC4yMTUwMDAwMDAwMDAwMDIgMzQuMTg0IDkuMTUwMDAwMDAwMDAwMDAyIDM2LjQ2NTk5OTk5OTk5OTk5NCA4LjY2OTAwMDAwMDAwMDAwMiAzOS4yMzYgQyA4LjY0MDgzMjY2NDQwMjk1NSAzOS4zOTgwNDgxNzM0NzAyOSA4LjY2MDI4NTY0NjkxMTQ0IDM5LjU2NDc4ODAyMzU0MzAyIDguNzI1MDAwMDAwMDAwMDAxIDM5LjcxNTk5OTk5OTk5OTk5NCBDIDkuNzQ1MDAwMDAwMDAwMDAxIDQyLjE0OTk5OTk5OTk5OTk5IDkuODYwMDAwMDAwMDAwMDAxIDQ1LjkxMyA4LjA1MyA0OS4xNzU5OTk5OTk5OTk5OTUgQyA3LjUzMDQyNTY3NTAyNzM0MzUgNDYuMjQzNjI3MDc5MjY5NTE1IDYuODczMDYyNDI5MzA0ODQ3IDQzLjMzNjg4MDI2MDIzOTczIDYuMDgyOTk5OTk5OTk5OTg4IDQwLjQ2NDk5OTk5OTk5OTk1IEMgOC4wNDcgMzUuOTc3IDEwLjI4NjAwMDAwMDAwMDAwMSAyOC43MTQ5OTk5OTk5OTk5OTYgOS4wMDIgMjIuNzk2OTk5OTk5OTk5OTk3IEMgOC42NzcwMDAwMDAwMDAwMDEgMjEuMjk5OTk5OTk5OTk5OTk3IDcuNjk4IDE5LjUyMDk5OTk5OTk5OTk5NyA2LjYxNSAxOC41ODk5OTk5OTk5OTk5OTYgQyA2LjQwNyAxOC40MDk5OTk5OTk5OTk5OTcgNi4yMTMgMTguMzUyOTk5OTk5OTk5OTk4IDYuMTIgMTguNDIyOTk5OTk5OTk5OTk1IEMgNi4wMzYwMDAwMDAwMDAwMDA1IDE4LjQ4Mjk5OTk5OTk5OTk5MyA1Ljk2OSAxOC42NjA5OTk5OTk5OTk5OTQgNi4wNTggMTguODY2OTk5OTk5OTk5OTk0IEMgNi42MDggMjAuMTMyOTk5OTk5OTk5OTk2IDYuOTM2OTk5OTk5OTk5OTk5IDIxLjQ2NTk5OTk5OTk5OTk5NCA3LjI4NCAyMy4xNDI5OTk5OTk5OTk5OTQgQyA4LjQwODk5OTk5OTk5OTk5OSAyOC41ODU5OTk5OTk5OTk5OSA2LjMyNzk5OTk5OTk5OTk5OSAzNS42MzI5OTk5OTk5OTk5OTYgNC40NDkgMzkuOTI1IEwgNC4zMzMgNDAuMTg0IEwgMy44NzYwMDAwMDAwMDAwMDAzIDQxLjE2NiBDIDMuNTIwMDAwMDAwMDAwMDAwNSAzOS4xNTE5OTk5OTk5OTk5OTQgMy4wMjYwMDAwMDAwMDAwMDAyIDM3LjIxNTk5OTk5OTk5OTk5NCAyLjU0NjAwMDAwMDAwMDAwMDMgMzUuMzI1OTk5OTk5OTk5OTkgQyAxLjE2NjAwMDAwMDAwMDAwMDQgMjkuOTE5OTk5OTk5OTk5OTk1IC0wLjEzMzk5OTk5OTk5OTk5OTkgMjQuODEwOTk5OTk5OTk5OTkzIDIuMTQ1MDAwMDAwMDAwMDAwNSAxOS4wNzE5OTk5OTk5OTk5OTIgQyAzLjM5MjAwMDAwMDAwMDAwMDMgMTUuOTM0OTk5OTk5OTk5OTkyIDMuNjI4MDAwMDAwMDAwMDAwNiAxMy4zNzk5OTk5OTk5OTk5OTIgMy44MTcgMTEuMzI1OTk5OTk5OTk5OTkyIEMgMy45MzMwMDAwMDAwMDAwMDAzIDEwLjA2Mjk5OTk5OTk5OTk5MiA0LjAzMyA4Ljk3MDk5OTk5OTk5OTk5MSA0LjM0MyA4LjA3Mzk5OTk5OTk5OTk5MSBDIDUuMjQ4IDUuNDY4OTk5OTk5OTk5OTkwNSA3LjQwNDk5OTk5OTk5OTk5OSA0Ljg5NTk5OTk5OTk5OTk5MSA5LjA4NyA1LjIyMTk5OTk5OTk5OTk5MSBDIDEwLjcxOSA1LjUzNzk5OTk5OTk5OTk5MDUgMTIuMzI3IDYuODE0OTk5OTk5OTk5OTkxIDEyLjI0MyA4LjY0MTk5OTk5OTk5OTk5IHogTSA5LjM3NSA5LjI2MyBDIDkuOTkyNDU0MzUwMzEwODI4IDkuNDY2MjQwNzg3OTM3NzMyIDEwLjY1Nzc1OTIxMjA2MjI2OSA5LjEzMDQ1NDM1MDMxMDgyOCAxMC44NjEgOC41MTMgQyAxMS4wNjQyNDA3ODc5Mzc3MzMgNy44OTU1NDU2NDk2ODkxNzMgMTAuNzI4NDU0MzUwMzEwODI5IDcuMjMwMjQwNzg3OTM3NzMxIDEwLjExMSA3LjAyNjk5OTk5OTk5OTk5OSBDIDkuNzA3NDY4NTM5OTE1NTc4IDYuODgwODQ5MDExNzc4NTQgOS4yNTYzODM1NTQ5MDE0MzEgNi45NjU3Mjc1NzEwMzc3NTk1IDguOTMzNTcwMjk4MDE3MjM3IDcuMjQ4NTUxNDU5Mzc3ODI1NSBDIDguNjEwNzU3MDQxMTMzMDQzIDcuNTMxMzc1MzQ3NzE3ODkyIDguNDY3MzA0OTM4NDcyODY2IDcuOTY3MzgzOTgwMzk1NjI3IDguNTU5MTI5MTc5MTY5ODEgOC4zODY2Mjg2MTAwMDUxMjUgQyA4LjY1MDk1MzQxOTg2Njc1NCA4LjgwNTg3MzIzOTYxNDYyMyA4Ljk2MzUyMTYxNTEyMTE0MiA5LjE0MjAwMjkxMjI3NDY2NiA5LjM3NSA5LjI2NCB6IiB0cmFuc2Zvcm09InRyYW5zbGF0ZSgtMTAuMzksIC0yNy4yOCkiIHN0eWxlPSJzdHJva2U6IG5vbmU7IHN0cm9rZS13aWR0aDogMTsgc3Ryb2tlLWRhc2hhcnJheTogbm9uZTsgc3Ryb2tlLWxpbmVjYXA6IGJ1dHQ7IHN0cm9rZS1kYXNob2Zmc2V0OiAwOyBzdHJva2UtbGluZWpvaW46IG1pdGVyOyBzdHJva2UtbWl0ZXJsaW1pdDogNDsgZmlsbDogcmdiKDMyLDU4LDE0Myk7IGZpbGwtcnVsZTogbm9uemVybzsgb3BhY2l0eTogMTsiLz4mI3hhOzwvZz4mI3hhOzxnIHRyYW5zZm9ybT0ibWF0cml4KE5hTiBOYU4gTmFOIE5hTiAwIDApIj4mI3hhOzxnIHN0eWxlPSIiPiYjeGE7PC9nPiYjeGE7PC9nPiYjeGE7PGcgdHJhbnNmb3JtPSJtYXRyaXgoTmFOIE5hTiBOYU4gTmFOIDAgMCkiPiYjeGE7PGcgc3R5bGU9IiI+JiN4YTs8L2c+JiN4YTs8L2c+JiN4YTs8L3N2Zz4=;imageBackground=#FFA500;fontFamily=Roboto Condensed;fontSource=https%3A%2F%2Ffonts.googleapis.com%2Fcss%3Ffamily%3DRoboto%2BCondensed;" parent="1" vertex="1">
            <mxGeometry x="400" y="470" width="50" height="50" as="geometry" />
          </mxCell>
        </UserObject>
        <UserObject label="https://oersi.org" link="https://oersi.org" tooltip="OERSI - ein Suchindex für Open Educational Resources in der Hochschullehr" id="qUk6HZ97VZmxMNl468dv-1">
          <mxCell style="shape=image;verticalLabelPosition=bottom;labelBackgroundColor=default;verticalAlign=top;aspect=fixed;imageAspect=0;image=https://oersi.org/resources/logo.svg;fontFamily=Roboto Condensed;fontSource=https%3A%2F%2Ffonts.googleapis.com%2Fcss%3Ffamily%3DRoboto%2BCondensed;" parent="1" vertex="1">
            <mxGeometry x="850" y="230" width="70" height="70" as="geometry" />
          </mxCell>
        </UserObject>
        <mxCell id="q5zUbUnrUjezg0L--bs4-17" style="edgeStyle=orthogonalEdgeStyle;rounded=0;orthogonalLoop=1;jettySize=auto;html=1;exitX=0.5;exitY=0;exitDx=0;exitDy=0;shape=flexArrow;width=8;endSize=8.33;" parent="1" source="qUk6HZ97VZmxMNl468dv-3" target="qUk6HZ97VZmxMNl468dv-1" edge="1">
          <mxGeometry relative="1" as="geometry" />
        </mxCell>
        <mxCell id="q5zUbUnrUjezg0L--bs4-18" value="&lt;div&gt;indexiert&lt;/div&gt;&lt;div&gt;&lt;br&gt;&lt;/div&gt;" style="edgeLabel;html=1;align=center;verticalAlign=middle;resizable=0;points=[];" parent="q5zUbUnrUjezg0L--bs4-17" vertex="1" connectable="0">
          <mxGeometry x="-0.1169" y="-2" relative="1" as="geometry">
            <mxPoint as="offset" />
          </mxGeometry>
        </mxCell>
        <UserObject label="" link="https://www.base-search.net/" tooltip="BASE (Bielefeld Academic Search Engine) ist eine der weltweit größten Suchmaschinen für wissenschaftliche Web-Dokumente. Der Index umfasst über 400 Millionen Nachweise von über 11.000 Datenlieferanten." id="qUk6HZ97VZmxMNl468dv-3">
          <mxCell style="shape=image;verticalLabelPosition=bottom;labelBackgroundColor=default;verticalAlign=top;aspect=fixed;imageAspect=0;image=https://www.base-search.net/interface/images/base_logo.png;imageBorder=none;" parent="1" vertex="1">
            <mxGeometry x="958" y="296.26" width="237" height="93.74" as="geometry" />
          </mxCell>
        </UserObject>
        <mxCell id="qUk6HZ97VZmxMNl468dv-4" value="" style="shape=image;verticalLabelPosition=bottom;labelBackgroundColor=default;verticalAlign=top;aspect=fixed;imageAspect=0;image=https://www.nilebits.com/wp-content/uploads/2022/11/Git-vs.-GitHub-vs.-GitLab.png;" parent="1" vertex="1">
          <mxGeometry x="580" y="220" width="200" height="112.5" as="geometry" />
        </mxCell>
        <UserObject label="https://codeberg.org" link="https://codeberg.org" id="q5zUbUnrUjezg0L--bs4-10">
          <mxCell style="shape=image;imageAspect=0;aspect=fixed;verticalLabelPosition=bottom;verticalAlign=top;image=https://codeberg.org/Codeberg/Design/raw/branch/main/logo/icon/svg/codeberg-logo_icon_blue.svg;" parent="1" vertex="1">
            <mxGeometry x="310" y="264" width="46" height="46" as="geometry" />
          </mxCell>
        </UserObject>
        <mxCell id="q5zUbUnrUjezg0L--bs4-12" style="edgeStyle=orthogonalEdgeStyle;rounded=0;orthogonalLoop=1;jettySize=auto;html=1;" parent="1" source="q5zUbUnrUjezg0L--bs4-11" target="qUk6HZ97VZmxMNl468dv-3" edge="1">
          <mxGeometry relative="1" as="geometry">
            <mxPoint x="900" y="480" as="targetPoint" />
          </mxGeometry>
        </mxCell>
        <mxCell id="q5zUbUnrUjezg0L--bs4-13" value="claim" style="edgeLabel;html=1;align=center;verticalAlign=middle;resizable=0;points=[];" parent="q5zUbUnrUjezg0L--bs4-12" vertex="1" connectable="0">
          <mxGeometry x="0.0889" relative="1" as="geometry">
            <mxPoint as="offset" />
          </mxGeometry>
        </mxCell>
        <UserObject label="https://orcid.org" link="https://orcid.org" tooltip="ORCID, which stands for Open Researcher and Contributor ID, is a global, not-for-profit organization" id="q5zUbUnrUjezg0L--bs4-11">
          <mxCell style="shape=image;imageAspect=0;aspect=fixed;verticalLabelPosition=bottom;verticalAlign=top;image=https://orcid.org/assets/vectors/orcid.logo.svg;" parent="1" vertex="1">
            <mxGeometry x="966" y="450" width="221" height="67" as="geometry" />
          </mxCell>
        </UserObject>
        <UserObject label="https://osf.io/" link="https://osf.io/" id="Ic_iRqfIND7cIVlIltMY-2">
          <mxCell style="shape=image;imageAspect=0;aspect=fixed;verticalLabelPosition=bottom;verticalAlign=top;image=https://osf.io/ember_osf_web/assets/images/global/cos-white2-81217c82c094af6555e80a4015f23163.png;" vertex="1" parent="1">
            <mxGeometry x="1052.5" y="584.5" width="48" height="48" as="geometry" />
          </mxCell>
        </UserObject>
        <UserObject label="https://zenodo.org/" link="https://zenodo.org/" id="Ic_iRqfIND7cIVlIltMY-3">
          <mxCell style="shape=image;imageAspect=0;aspect=fixed;verticalLabelPosition=bottom;verticalAlign=top;image=https://zenodo.org/static/images/invenio-rdm.svg;imageBackground=#0377CD;" vertex="1" parent="1">
            <mxGeometry x="1000" y="674.5" width="146" height="48" as="geometry" />
          </mxCell>
        </UserObject>
      </root>
    </mxGraphModel>
  </diagram>
</mxfile>
